<?xml version="1.0" standalone="no"?>
<!DOCTYPE svg PUBLIC "-//W3C//DTD SVG 20010904//EN"
 "http://www.w3.org/TR/2001/REC-SVG-20010904/DTD/svg10.dtd">
<svg version="1.0" xmlns="http://www.w3.org/2000/svg"
 width="512.000000pt" height="512.000000pt" viewBox="0 0 512.000000 512.000000"
 preserveAspectRatio="xMidYMid meet">
<metadata>
Created by potrace 1.14, written by Peter Selinger 2001-2017
</metadata>
<g transform="translate(0.000000,512.000000) scale(0.100000,-0.100000)"
fill="#000000" stroke="none">
<path d="M2379 5116 c-2 -2 -40 -6 -83 -10 -44 -4 -82 -8 -85 -10 -3 -2 -31
-7 -61 -11 -274 -33 -621 -161 -915 -336 -624 -372 -1086 -1046 -1200 -1754
-38 -236 -43 -590 -11 -800 103 -681 451 -1265 1002 -1683 361 -274 797 -445
1274 -499 78 -9 432 -9 515 0 315 34 609 119 878 253 488 244 871 615 1130
1094 148 274 253 617 284 930 12 118 9 506 -5 600 -27 183 -82 408 -132 540
-12 30 -27 71 -34 90 -29 76 -107 233 -165 331 -202 339 -459 612 -783 833
-54 36 -101 66 -105 66 -3 0 -14 6 -22 14 -21 17 -164 92 -267 138 -149 68
-428 154 -559 174 -16 2 -41 6 -55 8 -54 9 -97 16 -135 22 -43 6 -460 15 -466
10z"/>
</g>
</svg>
